<?xml version="1.0" encoding="utf-8"?>
<!-- Generator: Adobe Illustrator 16.0.0, SVG Export Plug-In . SVG Version: 6.00 Build 0)  -->
<!DOCTYPE svg PUBLIC "-//W3C//DTD SVG 1.1//EN" "http://www.w3.org/Graphics/SVG/1.1/DTD/svg11.dtd">
<svg version="1.1" id="Layer_1" xmlns="http://www.w3.org/2000/svg" xmlns:xlink="http://www.w3.org/1999/xlink" x="0px" y="0px"
	 width="24px" height="24px" viewBox="0 0 24 24" style="enable-background:new 0 0 24 24;" xml:space="preserve">
<g style="display:none;">
	<path style="display:inline;fill-rule:evenodd;clip-rule:evenodd;fill:#818181;" d="M15,5.8c0,0,0-0.1,0-0.1c0-0.8-0.7-1.5-1.5-1.5
		c-0.8,0-1.5,0.7-1.5,1.5c0,0,0,0.1,0,0.1H15L15,5.8z"/>
	<path style="display:inline;fill-rule:evenodd;clip-rule:evenodd;fill:#818181;" d="M20.5,4.4l-2.1-0.7c-0.3-0.1-0.5,0-0.7,0.2
		L15,7l1.4,0.5l2.1-2.4l1.7,0.5c0.4,0.1,0.7-0.1,0.9-0.4C21.1,4.9,20.9,4.5,20.5,4.4L20.5,4.4z"/>
	<polygon style="display:inline;fill-rule:evenodd;clip-rule:evenodd;fill:#818181;" points="5,6.4 18.9,6.4 12,14.6 5,6.4 	"/>
	<polygon style="display:inline;fill:#818181;" points="11.1,20.3 11.1,12.7 12.8,12.7 12.8,20.3 11.1,20.3 	"/>
	<path style="display:inline;fill:#818181;" d="M8,20.3c-0.5,0-0.8-0.4-0.8-0.8c0-0.5,0.4-0.8,0.8-0.8h8c0.5,0,0.8,0.4,0.8,0.8
		c0,0.5-0.4,0.8-0.8,0.8H8L8,20.3z"/>
</g>
<g style="display:none;">
	<path style="display:inline;fill:#818181;" d="M3.4,17.7c0,0.4,0.3,0.7,0.7,0.7h15.7c0.4,0,0.7-0.3,0.7-0.7V17H3.4V17.7L3.4,17.7z"
		/>
	<path style="display:inline;fill:#818181;" d="M19.1,16.3h1.4c0-4.5-3.4-8.1-7.9-8.5V7h0.7c0.4,0,0.7-0.3,0.7-0.7
		c0-0.4-0.3-0.7-0.7-0.7h-2.9c-0.4,0-0.7,0.3-0.7,0.7c0,0.4,0.3,0.7,0.7,0.7h0.7v0.8c-4.4,0.4-7.9,4-7.9,8.5h1.4H19.1L19.1,16.3z
		 M12,9.2L12,9.2c3.4,0,6.4,2.4,7,5.7H5C5.6,11.6,8.6,9.2,12,9.2L12,9.2z"/>
	<path style="display:inline;fill:#818181;" d="M15.2,10l-0.4,0.6c1.1,0.6,1.9,1.6,2.4,2.7l0.6-0.3C17.4,11.8,16.4,10.7,15.2,10
		L15.2,10z"/>
</g>
<g style="display:none;">
	<path style="display:inline;fill:#818181;" d="M20.8,10.8h-1.2c-0.1-0.4-0.4-0.7-0.8-0.7h-0.5c0,0-0.1-0.1-0.1-0.1V8.8
		c0-0.4-0.4-0.8-0.8-0.8h-1.2c-0.4,0-0.8,0.4-0.8,0.8v2H8.7v-2C8.7,8.4,8.3,8,7.9,8H6.7C6.2,8,5.9,8.4,5.9,8.8V10
		c0,0-0.1,0.1-0.1,0.1H5.3c-0.4,0-0.7,0.3-0.8,0.7H3.2v2.5h1.2c0,0.4,0.4,0.7,0.8,0.7h0.5c0,0,0.1,0.1,0.1,0.1v1.3
		c0,0.4,0.4,0.7,0.8,0.7h1.2c0.4,0,0.8-0.3,0.8-0.7v-2.1h6.7v2.1c0,0.4,0.4,0.7,0.8,0.7h1.2c0.4,0,0.8-0.3,0.8-0.7V14
		c0,0,0.1,0,0.1,0h0.5c0.4,0,0.8-0.3,0.8-0.7h1.2V10.8L20.8,10.8z M3.9,11.5L3.9,11.5h0.5v1H3.9V11.5L3.9,11.5z M5.9,13.1L5.9,13.1
		C5.9,13.2,5.8,13.2,5.9,13.1l-0.6,0.1c0,0-0.1,0-0.1-0.1v-2.3c0,0,0-0.1,0.1-0.1h0.5c0,0,0.1,0,0.1,0.1V13.1L5.9,13.1z M8.7,12.5
		L8.7,12.5v-1h6.7v1H8.7L8.7,12.5z M18.8,13.1L18.8,13.1C18.8,13.2,18.8,13.2,18.8,13.1l-0.6,0.1c0,0-0.1,0-0.1-0.1v-2.3
		c0,0,0-0.1,0.1-0.1h0.5c0,0,0.1,0,0.1,0.1V13.1L18.8,13.1z M20.1,12.5L20.1,12.5h-0.5v-1h0.5V12.5L20.1,12.5z"/>
</g>
<g style="display:none;">
	<path style="display:inline;fill:#818181;" d="M14.7,11.9c-0.2-0.4-0.9-0.6-1.5-0.7c-0.3,0.2-0.7,0.4-1.2,0.4s-0.8-0.1-1.2-0.4
		c-0.6,0.1-1.3,0.4-1.5,0.7c-0.4,0.5,0,2.6,0,2.6h5.4C14.7,14.5,15,12.5,14.7,11.9L14.7,11.9z"/>
	<path style="display:inline;fill:#818181;" d="M12,11.1c0.8,0,1.5-0.7,1.5-1.5c0-0.2,0-0.4-0.1-0.5h-0.2h-0.3
		C12.9,9.2,13,9.4,13,9.6c0,0.6-0.5,1-1,1s-1-0.5-1-1c0-0.2,0.1-0.4,0.2-0.5h-0.3h-0.2c-0.1,0.2-0.1,0.3-0.1,0.5
		C10.5,10.4,11.2,11.1,12,11.1L12,11.1z"/>
	<path style="display:inline;fill:#818181;" d="M13.1,7.3c0-0.1-0.1-0.2-0.2-0.2h-1.8c-0.1,0-0.2,0.1-0.2,0.2v1.4h2.3V7.3L13.1,7.3z
		"/>
	<path style="display:inline;fill:#818181;" d="M18.7,18h-1.1V4c0-0.4-0.3-0.7-0.7-0.7H7.1C6.6,3.2,6.4,3.5,6.4,4v14h-1
		c-0.4,0-0.7,0.3-0.7,0.7v2.1h14.8v-2.1C19.4,18.3,19.1,18,18.7,18L18.7,18z M7.8,4.7L7.8,4.7h8.4V17H7.8V4.7L7.8,4.7z"/>
</g>
<g style="display:none;">
	<path style="display:inline;fill:#818181;" d="M4.9,10.4L3,8.6C5.3,6.4,8.5,5,12,5c3.5,0,6.7,1.4,9,3.6l-1.9,1.8
		c-1.8-1.8-4.3-2.8-7.1-2.8C9.2,7.6,6.7,8.7,4.9,10.4L4.9,10.4z M12,12.6L12,12.6c1.4,0,2.6,0.5,3.5,1.4l1.9-1.8
		C16,10.8,14.1,9.9,12,9.9c-2.1,0-4,0.8-5.4,2.2l1.9,1.8C9.4,13.1,10.6,12.6,12,12.6L12,12.6z M12,15.9L12,15.9
		c-0.9,0-1.6,0.7-1.6,1.6c0,0.9,0.7,1.6,1.6,1.6c0.9,0,1.6-0.7,1.6-1.6C13.6,16.6,12.9,15.9,12,15.9L12,15.9z"/>
</g>
<g style="display:none;">
	<path style="display:inline;fill-rule:evenodd;clip-rule:evenodd;fill:#818181;" d="M18.5,3.1h-13C5.2,3.1,5,3.3,5,3.6v3.7h14V3.6
		C19,3.3,18.8,3.1,18.5,3.1L18.5,3.1z M18,6.4H5.9V4.3C5.9,4.1,6.1,4,6.4,4h11.2C17.8,4,18,4.1,18,4.3V6.4L18,6.4z"/>
	<path style="display:inline;fill-rule:evenodd;clip-rule:evenodd;fill:#818181;" d="M5,8.2v12.2c0,0.3,0.2,0.5,0.5,0.5h13
		c0.3,0,0.5-0.2,0.5-0.5V8.2H5L5,8.2z M17.7,19c0,0.2-0.2,0.4-0.4,0.4H6.8c-0.2,0-0.4-0.2-0.4-0.4V9.6h11.3V19L17.7,19z"/>
	<path style="display:inline;fill-rule:evenodd;clip-rule:evenodd;fill:#818181;" d="M12,10.5c-2.2,0-3.9,1.8-3.9,3.9
		c0,2.2,1.8,3.9,3.9,3.9c2.2,0,3.9-1.8,3.9-3.9C15.9,12.2,14.2,10.5,12,10.5L12,10.5z M12,17.5c-1.7,0-3.1-1.3-3.3-2.9
		c0,0,0.9,1.3,2.1,0c0.4,0.9,1.8,1.1,2.5,0c0.6,0.8,2.1-0.1,2.1-0.1C15.1,16.2,13.7,17.5,12,17.5L12,17.5z"/>
	<path style="display:inline;fill-rule:evenodd;clip-rule:evenodd;fill:#818181;" d="M8.3,5.2c0-0.4-0.3-0.7-0.7-0.7
		c-0.4,0-0.7,0.3-0.7,0.7c0,0.4,0.3,0.7,0.7,0.7C8,5.9,8.3,5.6,8.3,5.2L8.3,5.2z"/>
	<path style="display:inline;fill-rule:evenodd;clip-rule:evenodd;fill:#818181;" d="M10.6,5.2c0-0.4-0.3-0.7-0.7-0.7
		c-0.4,0-0.7,0.3-0.7,0.7c0,0.4,0.3,0.7,0.7,0.7C10.3,5.9,10.6,5.6,10.6,5.2L10.6,5.2z"/>
</g>
<g>
	<polygon style="fill-rule:evenodd;clip-rule:evenodd;fill:#818181;" points="4.8,3 19.2,3 19.2,17.4 14.7,17.4 13.7,18.6 12,21 
		10.3,18.6 9.3,17.4 4.8,17.4 4.8,3 	"/>
	<path style="fill:#FFFFFF;" d="M9.5,14.3V6.1H13c0.4,0,0.8,0.1,1.1,0.2C14.5,6.5,14.7,6.7,15,7c0.2,0.3,0.4,0.6,0.6,0.9
		c0.1,0.3,0.2,0.7,0.2,1c0,0.4-0.1,0.7-0.2,1c-0.1,0.3-0.3,0.6-0.5,0.9c-0.2,0.3-0.5,0.5-0.8,0.6c-0.3,0.2-0.7,0.2-1.1,0.2h-1.7v2.7
		H9.5L9.5,14.3z M11.4,10H13c0.2,0,0.4-0.1,0.6-0.3c0.2-0.2,0.3-0.5,0.3-0.8c0-0.2,0-0.4-0.1-0.5c-0.1-0.1-0.1-0.3-0.2-0.4
		c-0.1-0.1-0.2-0.2-0.3-0.2S13,7.8,12.9,7.8h-1.5V10L11.4,10z"/>
</g>
<g style="display:none;">
	<path style="display:inline;fill-rule:evenodd;clip-rule:evenodd;fill:#818181;" d="M12.1,8.6c0.5,0,0.8-0.3,1.1-0.6c0,0,0,0,0,0
		c0.1-0.1,0.2-0.3,0.2-0.5c0.1-0.3,0.1-0.7-0.1-1.2c-0.2-0.7-0.8-1.7-2-3.1c0.4,1.3-0.2,2.2-0.6,2.7c0,0-0.1,0.1-0.1,0.1
		c-0.2,0.3-0.3,0.7-0.3,1.1C10.5,8,11.3,8.6,12.1,8.6L12.1,8.6z"/>
	<path style="display:inline;fill-rule:evenodd;clip-rule:evenodd;fill:#818181;" d="M17.7,16.2c-0.1,0-0.1,0-0.2,0h0l0,0
		c-0.6,0.1-1.3,0.2-2.3,0.3c-0.6,0.1-0.7-0.4-0.7-0.6v-5.8c0-0.5-0.4-0.9-0.9-0.9h-3.4c-0.5,0-0.9,0.4-0.9,0.9V16
		c0,0.6-0.4,0.6-0.7,0.6c-0.8-0.1-1.6-0.2-2.4-0.4c0,0,0,0,0,0c-1-0.2-1.2,0.7-1.2,1v3c0,0.3,0.2,0.5,0.5,0.5h12.8
		c0.3,0,0.5-0.2,0.5-0.5v-3C18.9,16.2,18.1,16.2,17.7,16.2L17.7,16.2z M10.9,15.4v-3.1v-1c0-0.3,0.3-0.6,0.6-0.6h1.1
		c0.3,0,0.6,0.3,0.6,0.6v1v3.1v0.5c0,0,0,0.8-0.8,0.9c-0.6,0,0,0-0.7,0c-0.6,0-0.7-0.5-0.7-0.7V15.4L10.9,15.4z"/>
	<polygon style="display:inline;fill-rule:evenodd;clip-rule:evenodd;fill:#818181;" points="3.1,18.6 20.9,18.6 20.9,20.8 
		3.1,20.8 3.1,18.6 	"/>
</g>
<g style="display:none;">
	<path style="display:inline;fill-rule:evenodd;clip-rule:evenodd;fill:#818181;" d="M12,3.3c4.8,0,8.7,3.9,8.7,8.7
		s-3.9,8.7-8.7,8.7S3.3,16.8,3.3,12S7.2,3.3,12,3.3L12,3.3z"/>
	<path style="display:inline;fill-rule:evenodd;clip-rule:evenodd;fill:#FFFFFF;" d="M12,5.5c3.6,0,6.5,2.9,6.5,6.5
		c0,3.6-2.9,6.5-6.5,6.5c-3.6,0-6.5-2.9-6.5-6.5C5.5,8.4,8.4,5.5,12,5.5L12,5.5z"/>
	<path style="display:inline;fill:#818181;" d="M7.6,13.9c0-0.3,0-0.5,0.1-0.7c0-0.2,0.1-0.4,0.2-0.5c0.1-0.2,0.2-0.3,0.4-0.5
		c0.2-0.1,0.4-0.3,0.6-0.4c0.3-0.1,0.5-0.3,0.6-0.4c0.2-0.1,0.3-0.2,0.4-0.2c0.1-0.1,0.2-0.1,0.2-0.2c0-0.1,0.1-0.1,0.1-0.2
		c0-0.2-0.1-0.3-0.2-0.4c-0.1-0.1-0.3-0.1-0.5-0.1c-0.2,0-0.4,0.1-0.6,0.2c-0.2,0.1-0.3,0.3-0.5,0.4l-0.8-1c0.1-0.1,0.2-0.2,0.4-0.3
		c0.1-0.1,0.3-0.2,0.5-0.2C8.6,9.3,8.8,9.2,9,9.2c0.2,0,0.5-0.1,0.7-0.1c0.6,0,1,0.1,1.4,0.4c0.3,0.3,0.5,0.6,0.5,1
		c0,0.2,0,0.3-0.1,0.5c-0.1,0.1-0.1,0.3-0.2,0.4c-0.1,0.1-0.2,0.2-0.3,0.3c-0.1,0.1-0.2,0.2-0.4,0.2c-0.1,0-0.2,0.1-0.3,0.2
		c-0.1,0.1-0.2,0.1-0.3,0.2c-0.1,0.1-0.2,0.1-0.3,0.2c-0.1,0.1-0.2,0.1-0.2,0.2h2.2v1.2H7.6L7.6,13.9z"/>
	<path style="display:inline;fill:#818181;" d="M14.4,14.9v-1.1h-2.2v-1.2l2.7-3.4h0.9v3.4h0.7v1.2h-0.7v1.1H14.4L14.4,14.9z
		 M13.4,12.6h1.1v-1.4L13.4,12.6L13.4,12.6z"/>
</g>
<g style="display:none;">
	<path style="display:inline;fill:#818181;" d="M21,14.7c-0.8,0-1.3-0.4-1.6-0.7c-0.3-0.3-0.5-0.4-0.9-0.4c-0.4,0-0.6,0.2-0.9,0.4
		c-0.4,0.3-0.8,0.7-1.6,0.7c-0.8,0-1.3-0.4-1.6-0.7c-0.3-0.3-0.5-0.4-0.9-0.4c-0.4,0-0.6,0.2-0.9,0.4c-0.4,0.3-0.8,0.7-1.6,0.7
		c-0.8,0-1.3-0.4-1.6-0.7c-0.3-0.3-0.5-0.4-0.9-0.4c-0.4,0-0.7,0.2-0.9,0.4c-0.4,0.3-0.8,0.7-1.6,0.7c-0.8,0-1.3-0.4-1.6-0.7
		c-0.3-0.3-0.5-0.4-0.9-0.4v-1c0.8,0,1.3,0.4,1.6,0.7c0.3,0.2,0.5,0.4,0.9,0.4c0.5,0,0.6-0.2,0.9-0.4c0.4-0.3,0.8-0.7,1.6-0.7
		c0.8,0,1.3,0.4,1.6,0.7c0.3,0.2,0.5,0.4,0.9,0.4c0.5,0,0.7-0.2,0.9-0.4c0.4-0.3,0.8-0.7,1.6-0.7c0.8,0,1.3,0.4,1.6,0.7
		c0.3,0.2,0.5,0.4,0.9,0.4c0.5,0,0.7-0.2,0.9-0.4c0.4-0.3,0.8-0.7,1.6-0.7c0.8,0,1.3,0.4,1.6,0.7c0.3,0.2,0.5,0.4,0.9,0.4V14.7
		L21,14.7L21,14.7z M16.9,7.3L16.9,7.3c-1,0-1.8,0.8-1.8,1.8c0,1,0.8,1.8,1.8,1.8c1,0,1.8-0.8,1.8-1.8C18.8,8.1,18,7.3,16.9,7.3
		L16.9,7.3z M12.4,9.8l-3,2.3c0.1,0.1,0.2,0.2,0.3,0.3c0.3,0.3,0.5,0.4,1,0.4c0.5,0,0.7-0.2,1-0.4c0.4-0.3,0.8-0.7,1.7-0.7
		c0.9,0,1.3,0.4,1.7,0.7c0.1,0.1,0.2,0.2,0.3,0.2l0.3-0.6c-2.9-4.6-2.9-4.8-7.8-2.5l0.6,1C10.5,9.8,11,9.1,12.4,9.8L12.4,9.8z
		 M21,15.7L21,15.7c-0.4,0-0.6-0.2-0.9-0.4c-0.4-0.3-0.8-0.7-1.6-0.7c-0.8,0-1.3,0.4-1.6,0.7c-0.3,0.2-0.5,0.4-0.9,0.4
		c-0.4,0-0.6-0.2-0.9-0.4c-0.4-0.3-0.8-0.7-1.6-0.7c-0.8,0-1.3,0.4-1.6,0.7c-0.3,0.2-0.5,0.4-0.9,0.4c-0.5,0-0.6-0.2-0.9-0.4
		C9.4,15,9,14.6,8.1,14.6c-0.8,0-1.3,0.4-1.6,0.7c-0.3,0.2-0.5,0.4-0.9,0.4c-0.4,0-0.7-0.2-0.9-0.4C4.3,15,3.8,14.6,3,14.6v1
		c0.5,0,0.7,0.2,0.9,0.4c0.4,0.3,0.8,0.7,1.6,0.7c0.8,0,1.3-0.4,1.6-0.7c0.3-0.2,0.5-0.4,0.9-0.4c0.5,0,0.7,0.2,0.9,0.4
		c0.4,0.3,0.8,0.7,1.6,0.7c0.8,0,1.3-0.4,1.6-0.7c0.3-0.2,0.5-0.4,0.9-0.4c0.5,0,0.6,0.2,0.9,0.4c0.4,0.3,0.8,0.7,1.6,0.7
		c0.8,0,1.3-0.4,1.6-0.7c0.3-0.2,0.5-0.4,0.9-0.4c0.5,0,0.7,0.2,0.9,0.4c0.4,0.3,0.8,0.7,1.6,0.7V15.7L21,15.7L21,15.7z"/>
</g>
<rect x="3" y="3" style="display:none;fill:none;stroke:#00AEEF;stroke-width:0.25;stroke-miterlimit:10;" width="18" height="18"/>
</svg>
